<svg width="512" height="512" viewBox="0 0 512 512" fill="none" xmlns="http://www.w3.org/2000/svg">
<rect width="512" height="512" fill="black"/>
<path d="M216.304 357.984C210.843 357.984 205.211 356.363 199.408 353.12C193.776 349.877 188.229 344.672 182.768 337.504C178.501 331.701 175.344 324.96 173.296 317.28C171.248 309.771 170.224 302.347 170.224 295.008C170.224 291.253 170.48 287.584 170.992 284C171.504 280.075 172.528 275.637 174.064 270.688C175.771 265.739 177.477 261.643 179.184 258.4C179.696 257.376 180.464 256.267 181.488 255.072C182.512 253.877 183.28 253.28 183.792 253.28C183.963 253.28 184.048 253.365 184.048 253.536C184.048 253.707 183.28 255.499 181.744 258.912C177.477 267.445 175.344 276.917 175.344 287.328C175.344 296.715 176.795 305.931 179.696 314.976C182.768 323.851 186.693 331.531 191.472 338.016C196.08 344.16 200.603 348.597 205.04 351.328C209.477 354.059 213.829 355.424 218.096 355.424C224.24 355.424 229.957 352.864 235.248 347.744C240.539 342.795 244.976 336.395 248.56 328.544C251.12 323.253 253.253 316.341 254.96 307.808C256.667 299.104 258.032 289.376 259.056 278.624C260.08 267.872 260.507 256.864 260.336 245.6V243.296C254.363 245.856 248.56 248.928 242.928 252.512C237.467 255.925 232.176 259.765 227.056 264.032C226.544 264.544 226.032 264.8 225.52 264.8C224.496 264.8 223.643 264.203 222.96 263.008C222.277 261.643 221.936 260.363 221.936 259.168C221.936 257.12 222.533 255.755 223.728 255.072C229.531 250.635 235.419 246.965 241.392 244.064C247.536 241.163 253.851 238.859 260.336 237.152C260.165 226.059 259.141 215.221 257.264 204.64C255.557 194.059 253.253 184.245 250.352 175.2C247.621 166.155 244.549 158.475 241.136 152.16L240.88 151.904C229.445 152.075 218.352 153.269 207.6 155.488C197.019 157.536 187.547 160.693 179.184 164.96C170.821 169.056 164.165 174.347 159.216 180.832C154.437 187.147 152.048 194.741 152.048 203.616C152.048 207.371 152.389 210.869 153.072 214.112C153.925 217.184 155.291 219.829 157.168 222.048C158.192 223.072 158.704 224.011 158.704 224.864C158.704 225.888 158.192 226.4 157.168 226.4C156.144 226.4 155.12 225.803 154.096 224.608C151.195 221.195 149.317 217.44 148.464 213.344C147.44 209.248 146.928 205.152 146.928 201.056C146.928 192.693 148.805 185.355 152.56 179.04C156.485 172.725 161.605 167.349 167.92 162.912C174.405 158.304 181.488 154.635 189.168 151.904C196.848 149.003 204.613 146.784 212.464 145.248C220.485 143.712 227.824 142.859 234.48 142.688C232.091 139.957 229.872 138.336 227.824 137.824C225.947 137.141 224.24 136.885 222.704 137.056C221.339 137.056 220.144 136.715 219.12 136.032C218.437 135.52 218.096 134.923 218.096 134.24C218.096 132.533 220.315 131.68 224.752 131.68C227.995 131.68 231.664 132.533 235.76 134.24C240.027 135.776 243.867 138.592 247.28 142.688C255.131 142.859 263.92 143.627 273.648 144.992C283.376 146.357 292.933 148.576 302.32 151.648C311.707 154.72 319.899 158.901 326.896 164.192C333.893 169.312 338.501 175.883 340.72 183.904C340.891 184.416 340.976 185.184 340.976 186.208C340.976 187.744 340.549 188.512 339.696 188.512C338.843 188.512 337.989 187.488 337.136 185.44C335.259 178.613 330.224 172.811 322.032 168.032C313.84 163.253 303.685 159.499 291.568 156.768C279.621 153.867 266.907 152.245 253.424 151.904C257.008 158.731 259.824 166.752 261.872 175.968C264.091 185.184 265.712 194.912 266.736 205.152C267.931 215.221 268.699 225.205 269.04 235.104C273.989 234.08 279.024 233.397 284.144 233.056C289.264 232.544 294.469 232.288 299.76 232.288C301.125 232.288 302.32 232.544 303.344 233.056C304.368 233.397 304.88 233.739 304.88 234.08C304.88 235.104 302.747 235.616 298.48 235.616C288.411 235.616 278.597 237.067 269.04 239.968C269.04 241.675 269.04 243.467 269.04 245.344C269.211 247.221 269.296 249.013 269.296 250.72C269.296 258.571 269.04 265.739 268.528 272.224C268.187 278.539 267.845 283.659 267.504 287.584C266.139 300.213 262.981 311.904 258.032 322.656C253.083 333.408 246.939 341.941 239.6 348.256C232.432 354.741 224.667 357.984 216.304 357.984ZM288.01 334.432C287.157 334.432 286.73 333.749 286.73 332.384C286.73 331.189 287.157 329.739 288.01 328.032C288.863 326.325 289.973 324.96 291.338 323.936C292.703 323.083 294.154 322.144 295.69 321.12C297.055 320.267 298.421 319.499 299.786 318.816C299.615 318.475 299.53 317.877 299.53 317.024C299.53 315.659 299.957 314.976 300.81 314.976C301.322 314.976 302.09 315.573 303.114 316.768C316.426 309.429 329.397 304.053 342.026 300.64V299.872C342.026 295.093 340.746 290.656 338.186 286.56C335.797 282.464 332.725 278.283 328.97 274.016C325.215 269.749 321.375 265.056 317.45 259.936C313.695 254.816 310.282 249.013 307.21 242.528C304.309 235.872 302.431 228.107 301.578 219.232C301.407 218.208 301.322 217.184 301.322 216.16C301.322 215.136 301.322 214.112 301.322 213.088C301.322 202.165 303.797 192.267 308.746 183.392C313.695 174.517 320.095 166.923 327.946 160.608C335.967 154.123 344.586 149.088 353.802 145.504C361.141 142.603 369.503 141.152 378.89 141.152C382.303 141.152 385.546 141.408 388.618 141.92C397.663 143.627 403.978 146.613 407.562 150.88C411.146 155.147 412.938 159.413 412.938 163.68C412.938 166.923 412.085 169.824 410.378 172.384C408.671 174.944 407.477 176.224 406.794 176.224C406.282 176.224 406.026 175.883 406.026 175.2C406.026 174.859 406.111 174.347 406.282 173.664C406.623 172.811 406.879 171.957 407.05 171.104C407.562 169.739 407.903 168.544 408.074 167.52C408.245 166.496 408.33 165.472 408.33 164.448C408.33 158.987 405.77 154.976 400.65 152.416C395.701 149.685 390.41 148.32 384.778 148.32C384.095 148.32 383.327 148.32 382.474 148.32C381.621 148.32 380.767 148.405 379.914 148.576C369.162 150.112 359.007 154.037 349.45 160.352C339.893 166.667 331.786 174.944 325.13 185.184C318.645 195.253 314.378 206.859 312.33 220C312.159 221.195 311.989 222.389 311.818 223.584C311.818 224.779 311.818 225.888 311.818 226.912C311.818 234.933 313.525 242.272 316.938 248.928C320.351 255.413 324.362 261.472 328.97 267.104C333.749 272.736 338.271 278.197 342.538 283.488C346.805 288.608 349.706 293.728 351.242 298.848C354.655 298.165 357.983 297.739 361.226 297.568C364.469 297.397 367.626 297.397 370.698 297.568C373.087 297.909 374.282 298.592 374.282 299.616C374.282 300.64 372.575 301.152 369.162 301.152C366.773 301.152 364.127 301.323 361.226 301.664C358.325 301.835 355.253 302.347 352.01 303.2C352.181 303.712 352.266 304.224 352.266 304.736C352.266 305.248 352.266 305.675 352.266 306.016C352.266 307.723 352.01 309.515 351.498 311.392C349.279 318.219 345.269 323.253 339.466 326.496C333.663 329.739 327.775 331.36 321.802 331.36C315.999 331.36 311.135 330.165 307.21 327.776C305.845 327.093 304.565 326.155 303.37 324.96C301.151 326.155 298.933 327.52 296.714 329.056C294.325 330.592 292.021 332.128 289.802 333.664C289.119 334.176 288.522 334.432 288.01 334.432ZM319.498 326.752C324.447 326.752 329.311 325.131 334.09 321.888C338.869 318.816 341.514 313.611 342.026 306.272C330.762 310.197 319.157 315.659 307.21 322.656C309.941 325.387 314.037 326.752 319.498 326.752Z" fill="white"/>
</svg>
