<svg width="267" height="227" viewBox="0 0 267 227" fill="none" xmlns="http://www.w3.org/2000/svg">
<path d="M70.304 226.984C64.8427 226.984 59.2107 225.363 53.408 222.12C47.776 218.877 42.2293 213.672 36.768 206.504C32.5013 200.701 29.344 193.96 27.296 186.28C25.248 178.771 24.224 171.347 24.224 164.008C24.224 160.253 24.48 156.584 24.992 153C25.504 149.075 26.528 144.637 28.064 139.688C29.7707 134.739 31.4773 130.643 33.184 127.4C33.696 126.376 34.464 125.267 35.488 124.072C36.512 122.877 37.28 122.28 37.792 122.28C37.9627 122.28 38.048 122.365 38.048 122.536C38.048 122.707 37.28 124.499 35.744 127.912C31.4773 136.445 29.344 145.917 29.344 156.328C29.344 165.715 30.7947 174.931 33.696 183.976C36.768 192.851 40.6933 200.531 45.472 207.016C50.08 213.16 54.6027 217.597 59.04 220.328C63.4773 223.059 67.8293 224.424 72.096 224.424C78.24 224.424 83.9573 221.864 89.248 216.744C94.5387 211.795 98.976 205.395 102.56 197.544C105.12 192.253 107.253 185.341 108.96 176.808C110.667 168.104 112.032 158.376 113.056 147.624C114.08 136.872 114.507 125.864 114.336 114.6V112.296C108.363 114.856 102.56 117.928 96.928 121.512C91.4667 124.925 86.176 128.765 81.056 133.032C80.544 133.544 80.032 133.8 79.52 133.8C78.496 133.8 77.6427 133.203 76.96 132.008C76.2773 130.643 75.936 129.363 75.936 128.168C75.936 126.12 76.5333 124.755 77.728 124.072C83.5307 119.635 89.4187 115.965 95.392 113.064C101.536 110.163 107.851 107.859 114.336 106.152C114.165 95.0587 113.141 84.2213 111.264 73.64C109.557 63.0587 107.253 53.2453 104.352 44.2C101.621 35.1547 98.5493 27.4747 95.136 21.16L94.88 20.904C83.4453 21.0747 72.352 22.2693 61.6 24.488C51.0187 26.536 41.5467 29.6933 33.184 33.96C24.8213 38.056 18.1653 43.3467 13.216 49.832C8.43733 56.1467 6.048 63.7413 6.048 72.616C6.048 76.3707 6.38933 79.8693 7.072 83.112C7.92533 86.184 9.29067 88.8293 11.168 91.048C12.192 92.072 12.704 93.0107 12.704 93.864C12.704 94.888 12.192 95.4 11.168 95.4C10.144 95.4 9.12 94.8027 8.096 93.608C5.19467 90.1947 3.31733 86.44 2.464 82.344C1.44 78.248 0.928 74.152 0.928 70.056C0.928 61.6933 2.80533 54.3547 6.56 48.04C10.4853 41.7253 15.6053 36.3493 21.92 31.912C28.4053 27.304 35.488 23.6347 43.168 20.904C50.848 18.0027 58.6133 15.784 66.464 14.248C74.4853 12.712 81.824 11.8587 88.48 11.688C86.0907 8.95733 83.872 7.33599 81.824 6.82399C79.9467 6.14132 78.24 5.88532 76.704 6.05598C75.3387 6.05598 74.144 5.71466 73.12 5.032C72.4373 4.51999 72.096 3.92266 72.096 3.23999C72.096 1.53333 74.3147 0.679993 78.752 0.679993C81.9947 0.679993 85.664 1.53333 89.76 3.23999C94.0267 4.77599 97.8667 7.59199 101.28 11.688C109.131 11.8587 117.92 12.6267 127.648 13.992C137.376 15.3573 146.933 17.576 156.32 20.648C165.707 23.72 173.899 27.9013 180.896 33.192C187.893 38.312 192.501 44.8827 194.72 52.904C194.891 53.416 194.976 54.184 194.976 55.208C194.976 56.744 194.549 57.512 193.696 57.512C192.843 57.512 191.989 56.488 191.136 54.44C189.259 47.6133 184.224 41.8107 176.032 37.032C167.84 32.2533 157.685 28.4987 145.568 25.768C133.621 22.8667 120.907 21.2453 107.424 20.904C111.008 27.7307 113.824 35.752 115.872 44.968C118.091 54.184 119.712 63.912 120.736 74.152C121.931 84.2213 122.699 94.2053 123.04 104.104C127.989 103.08 133.024 102.397 138.144 102.056C143.264 101.544 148.469 101.288 153.76 101.288C155.125 101.288 156.32 101.544 157.344 102.056C158.368 102.397 158.88 102.739 158.88 103.08C158.88 104.104 156.747 104.616 152.48 104.616C142.411 104.616 132.597 106.067 123.04 108.968C123.04 110.675 123.04 112.467 123.04 114.344C123.211 116.221 123.296 118.013 123.296 119.72C123.296 127.571 123.04 134.739 122.528 141.224C122.187 147.539 121.845 152.659 121.504 156.584C120.139 169.213 116.981 180.904 112.032 191.656C107.083 202.408 100.939 210.941 93.6 217.256C86.432 223.741 78.6667 226.984 70.304 226.984ZM142.01 203.432C141.157 203.432 140.73 202.749 140.73 201.384C140.73 200.189 141.157 198.739 142.01 197.032C142.863 195.325 143.973 193.96 145.338 192.936C146.703 192.083 148.154 191.144 149.69 190.12C151.055 189.267 152.421 188.499 153.786 187.816C153.615 187.475 153.53 186.877 153.53 186.024C153.53 184.659 153.957 183.976 154.81 183.976C155.322 183.976 156.09 184.573 157.114 185.768C170.426 178.429 183.397 173.053 196.026 169.64V168.872C196.026 164.093 194.746 159.656 192.186 155.56C189.797 151.464 186.725 147.283 182.97 143.016C179.215 138.749 175.375 134.056 171.45 128.936C167.695 123.816 164.282 118.013 161.21 111.528C158.309 104.872 156.431 97.1067 155.578 88.232C155.407 87.208 155.322 86.184 155.322 85.16C155.322 84.136 155.322 83.112 155.322 82.088C155.322 71.1653 157.797 61.2667 162.746 52.392C167.695 43.5173 174.095 35.9227 181.946 29.608C189.967 23.1227 198.586 18.088 207.802 14.504C215.141 11.6027 223.503 10.152 232.89 10.152C236.303 10.152 239.546 10.408 242.618 10.92C251.663 12.6267 257.978 15.6133 261.562 19.88C265.146 24.1467 266.938 28.4133 266.938 32.68C266.938 35.9227 266.085 38.824 264.378 41.384C262.671 43.944 261.477 45.224 260.794 45.224C260.282 45.224 260.026 44.8827 260.026 44.2C260.026 43.8587 260.111 43.3467 260.282 42.664C260.623 41.8107 260.879 40.9573 261.05 40.104C261.562 38.7387 261.903 37.544 262.074 36.52C262.245 35.496 262.33 34.472 262.33 33.448C262.33 27.9867 259.77 23.976 254.65 21.416C249.701 18.6853 244.41 17.32 238.778 17.32C238.095 17.32 237.327 17.32 236.474 17.32C235.621 17.32 234.767 17.4053 233.914 17.576C223.162 19.112 213.007 23.0373 203.45 29.352C193.893 35.6667 185.786 43.944 179.13 54.184C172.645 64.2533 168.378 75.8587 166.33 89C166.159 90.1947 165.989 91.3893 165.818 92.584C165.818 93.7787 165.818 94.888 165.818 95.912C165.818 103.933 167.525 111.272 170.938 117.928C174.351 124.413 178.362 130.472 182.97 136.104C187.749 141.736 192.271 147.197 196.538 152.488C200.805 157.608 203.706 162.728 205.242 167.848C208.655 167.165 211.983 166.739 215.226 166.568C218.469 166.397 221.626 166.397 224.698 166.568C227.087 166.909 228.282 167.592 228.282 168.616C228.282 169.64 226.575 170.152 223.162 170.152C220.773 170.152 218.127 170.323 215.226 170.664C212.325 170.835 209.253 171.347 206.01 172.2C206.181 172.712 206.266 173.224 206.266 173.736C206.266 174.248 206.266 174.675 206.266 175.016C206.266 176.723 206.01 178.515 205.498 180.392C203.279 187.219 199.269 192.253 193.466 195.496C187.663 198.739 181.775 200.36 175.802 200.36C169.999 200.36 165.135 199.165 161.21 196.776C159.845 196.093 158.565 195.155 157.37 193.96C155.151 195.155 152.933 196.52 150.714 198.056C148.325 199.592 146.021 201.128 143.802 202.664C143.119 203.176 142.522 203.432 142.01 203.432ZM173.498 195.752C178.447 195.752 183.311 194.131 188.09 190.888C192.869 187.816 195.514 182.611 196.026 175.272C184.762 179.197 173.157 184.659 161.21 191.656C163.941 194.387 168.037 195.752 173.498 195.752Z" fill="white"/>
</svg>
