<svg width="70" height="70" viewBox="0 0 70 70" fill="none" xmlns="http://www.w3.org/2000/svg">
<g clip-path="url(#clip0_1302_2790)">
<path d="M35.0004 41.2388C38.4461 41.2388 41.2395 38.4454 41.2395 34.9996C41.2395 31.5539 38.4461 28.7605 35.0004 28.7605C31.5546 28.7605 28.7612 31.5539 28.7612 34.9996C28.7612 38.4454 31.5546 41.2388 35.0004 41.2388Z" fill="#61DAFB"/>
<path d="M35.0012 47.7825C53.4907 47.7825 68.4795 42.0595 68.4795 34.9999C68.4795 27.9403 53.4907 22.2173 35.0012 22.2173C16.5117 22.2173 1.52295 27.9403 1.52295 34.9999C1.52295 42.0595 16.5117 47.7825 35.0012 47.7825Z" stroke="#61DAFB" stroke-width="3.04348"/>
<path d="M23.931 41.3912C33.1758 57.4036 45.6264 67.5228 51.7402 63.993C57.8541 60.4631 55.3159 44.621 46.0712 28.6086C36.8264 12.5962 24.3758 2.47708 18.262 6.0069C12.1481 9.53673 14.6863 25.3788 23.931 41.3912Z" stroke="#61DAFB" stroke-width="3.04348"/>
<path d="M23.9298 28.6085C14.6851 44.6209 12.1469 60.463 18.2608 63.9928C24.3746 67.5226 36.8252 57.4035 46.07 41.3911C55.3147 25.3787 57.8528 9.53659 51.739 6.00677C45.6252 2.47695 33.1746 12.5961 23.9298 28.6085Z" stroke="#61DAFB" stroke-width="3.04348"/>
</g>
<defs>
<clipPath id="clip0_1302_2790">
<rect width="70" height="62.2802" fill="white" transform="translate(0 3.85986)"/>
</clipPath>
</defs>
</svg>
